<svg width="21" height="21" viewBox="0 0 21 21" fill="none" xmlns="http://www.w3.org/2000/svg">
<path d="M3.9301 17.69C3.7601 17.69 3.6901 17.57 3.6001 17.48C2.33582 16.1518 1.46108 14.5016 1.07152 12.7097C0.681969 10.9179 0.792607 9.05341 1.39133 7.3202C1.99006 5.58699 3.05382 4.05178 4.4663 2.88243C5.87878 1.71309 7.5856 0.954628 9.40011 0.689995C10.9074 0.453771 12.449 0.569139 13.9044 1.02709C15.3598 1.48505 16.6896 2.27319 17.7901 3.32999C18.0501 3.55999 18.1701 3.57999 18.3301 3.25999C18.4901 2.93999 18.6401 2.78 18.7801 2.53C18.9201 2.28 19.0201 2.04999 19.1701 1.75999C19.8031 3.58325 20.311 5.44758 20.6901 7.33999C21.02 9.04242 21.0403 10.7904 20.7501 12.5C20.4098 14.1813 19.647 15.7482 18.5334 17.053C17.4199 18.3578 15.9924 19.3575 14.3855 19.9578C12.7787 20.5581 11.0454 20.7393 9.34906 20.4842C7.65278 20.2292 6.0494 19.5463 4.69011 18.5C4.61011 18.45 4.5101 18.42 4.4901 18.31C4.6301 18.19 4.8001 18.22 4.9601 18.18C5.13056 18.1303 5.27897 18.0239 5.38079 17.8785C5.48261 17.733 5.53176 17.5572 5.52011 17.38C5.48794 17.2129 5.40397 17.0602 5.28012 16.9435C5.15626 16.8268 4.99881 16.7521 4.83011 16.73C4.65924 16.7258 4.49182 16.7785 4.35422 16.8799C4.21662 16.9813 4.11667 17.1255 4.0701 17.29C4.0201 17.41 4.0601 17.59 3.9301 17.69Z" fill="#6CB43F"/>
<path d="M3.92993 17.69V17.39C3.95276 17.1792 4.05268 16.9842 4.21049 16.8426C4.36831 16.701 4.57288 16.6226 4.78493 16.6226C4.99699 16.6226 5.20156 16.701 5.35938 16.8426C5.51719 16.9842 5.6171 17.1792 5.63993 17.39C5.63994 17.5025 5.61763 17.6138 5.57429 17.7176C5.53095 17.8214 5.46744 17.9156 5.38745 17.9946C5.30746 18.0737 5.21257 18.1361 5.10828 18.1782C5.004 18.2203 4.89239 18.2413 4.77993 18.24H4.48993C4.26424 18.1012 4.07282 17.9132 3.92993 17.69V17.69Z" fill="#FEFFFE"/>
<path d="M17.92 8.69C17.0051 10.3912 15.7227 11.8672 14.1659 13.0106C12.609 14.154 10.817 14.9361 8.91999 15.3L5.91999 16.01C5.81641 16.0369 5.70824 16.0409 5.60292 16.0219C5.49761 16.003 5.39767 15.9614 5.30999 15.9C4.90453 15.6449 4.56415 15.2988 4.31591 14.8891C4.06767 14.4794 3.91841 14.0175 3.87999 13.54C3.7129 12.2559 4.03002 10.9555 4.76953 9.8925C5.50903 8.82947 6.61791 8.07993 7.87999 7.79C9.0071 7.52278 10.1616 7.38853 11.32 7.39001C13.611 7.30593 15.7992 6.41722 17.5 4.88C18.1414 4.30747 18.6822 3.63143 19.1 2.88C19.42 3.75 19.65 4.57 19.87 5.4C20.3347 7.08018 20.5635 8.8168 20.55 10.56C20.5316 11.5277 20.3595 12.4864 20.04 13.4C19.6799 14.4292 19.0347 15.3347 18.1795 16.0111C17.3243 16.6875 16.2944 17.1067 15.21 17.22C14.0129 17.4064 12.8003 17.4734 11.59 17.42C10.23 17.42 8.86 17.35 7.5 17.42C7.41 17.42 7.28 17.53 7.25 17.35C8.52 16.93 9.83 16.58 11.08 16.09C12.6691 15.4976 14.1088 14.5637 15.2976 13.3542C16.4863 12.1447 17.3952 10.6891 17.96 9.09C17.9848 9.00113 18.0048 8.911 18.02 8.82C18.0314 8.80581 18.0375 8.78818 18.0375 8.77C18.0375 8.75183 18.0314 8.73419 18.02 8.72001C18.02 8.72001 17.94 8.69 17.92 8.69Z" fill="white"/>
<path d="M7.2099 17.25L7.4599 17.32C7.28383 17.3966 7.08942 17.4209 6.8999 17.39C6.9899 17.27 7.1099 17.29 7.2099 17.25Z" fill="#E5F0DD"/>
<path d="M17.9199 8.69002L17.9999 8.46002C18.0393 8.50402 18.061 8.56099 18.061 8.62002C18.061 8.67906 18.0393 8.73602 17.9999 8.78002L17.9199 8.69002Z" fill="#6DB540"/>
</svg>
