<svg width="10" height="12" viewBox="0 0 16 21" fill="none" xmlns="http://www.w3.org/2000/svg">
<path d="M7.96002 11.41C7.07005 10.7339 6.30807 9.9042 5.71002 8.96C5.43975 8.58664 5.31773 8.12623 5.36762 7.66803C5.41751 7.20982 5.63574 6.78645 5.98002 6.48C6.51853 5.91109 7.10762 5.39229 7.74003 4.93C8.30667 4.50303 8.82626 4.01695 9.29003 3.48C9.63134 3.10992 9.87929 2.66364 10.0132 2.17834C10.1472 1.69304 10.1632 1.18276 10.06 0.690002C10.17 0.690002 10.2 0.780002 10.23 0.850002C10.4201 1.19804 10.5248 1.58632 10.5352 1.98276C10.5456 2.37921 10.4616 2.77245 10.29 3.13C9.87486 4.0024 9.27015 4.7711 8.52003 5.38C8.00724 5.77921 7.52583 6.21716 7.08003 6.69C6.85155 6.92895 6.67357 7.21149 6.55673 7.52076C6.4399 7.83003 6.3866 8.15967 6.40003 8.49C6.45931 8.91998 6.6167 9.33057 6.86003 9.69L7.80002 11.1C7.86001 11.1998 7.91345 11.3033 7.96002 11.41V11.41Z" fill="#E63230"/>
<path d="M14.29 17.77C14.64 17.99 14.66 18.18 14.38 18.41C14.0074 18.6762 13.5861 18.8664 13.14 18.97C11.98 19.2894 10.7906 19.4905 9.59002 19.57C8.08852 19.6749 6.58152 19.6749 5.08002 19.57C3.8097 19.5142 2.54399 19.3806 1.29002 19.17C1.11137 19.1436 0.938736 19.0861 0.780018 19C0.510018 18.84 0.480018 18.65 0.700018 18.43C0.767345 18.3561 0.844778 18.2921 0.930018 18.24C1.6721 17.7739 2.53387 17.5341 3.41002 17.55C3.46201 17.5422 3.51508 17.5463 3.56529 17.5619C3.61549 17.5774 3.66154 17.6041 3.70002 17.64C3.1677 17.6651 2.64653 17.8014 2.17002 18.04C2.03002 18.11 1.84002 18.17 1.84002 18.35C1.84002 18.53 2.05002 18.57 2.20002 18.63C2.87604 18.8395 3.57399 18.9704 4.28002 19.02C5.6566 19.1399 7.03953 19.1699 8.42002 19.11C10.0739 19.1033 11.7227 18.9257 13.34 18.58C13.5725 18.5292 13.7954 18.4414 14 18.32C14.0576 18.3068 14.1116 18.2813 14.1584 18.2454C14.2052 18.2094 14.2437 18.1637 14.2712 18.1115C14.2988 18.0593 14.3147 18.0017 14.318 17.9428C14.3212 17.8838 14.3117 17.8249 14.29 17.77Z" fill="#0C74BB"/>
<path d="M12.18 4.79002C11.4835 5.21621 10.8154 5.6872 10.18 6.20002C9.88047 6.44137 9.62065 6.72819 9.40998 7.05002C9.27593 7.2325 9.19395 7.44797 9.17282 7.67341C9.15168 7.89886 9.19218 8.12581 9.28999 8.33002C9.47429 8.67887 9.6849 9.01317 9.91999 9.33002C10.1522 9.60079 10.2756 9.94809 10.2663 10.3046C10.2571 10.6612 10.1159 11.0016 9.86999 11.26C9.59654 11.6071 9.25656 11.8961 8.86999 12.11L8.95998 11.96C9.19651 11.705 9.32373 11.3675 9.31439 11.0198C9.30504 10.6721 9.15987 10.342 8.90998 10.1C8.54139 9.69886 8.27397 9.21544 8.12999 8.69002C8.0227 8.27871 8.03743 7.84507 8.17238 7.44199C8.30733 7.03891 8.55667 6.68382 8.88998 6.42002C9.68232 5.72682 10.6079 5.20278 11.61 4.88002L12.12 4.72002C12.18 4.69002 12.19 4.75002 12.18 4.79002Z" fill="#E63230"/>
<path d="M5.22996 16.11C5.08996 16.39 5.11996 16.48 5.38996 16.56C5.88024 16.686 6.38379 16.7532 6.88996 16.76C7.87587 16.8186 8.86516 16.7412 9.82996 16.53C9.98021 16.497 10.1374 16.522 10.27 16.6C10.55 16.76 10.84 16.89 11.14 17.04C10.6362 17.2604 10.1097 17.4247 9.56996 17.53C8.2025 17.8255 6.78499 17.7981 5.42996 17.45C5.12073 17.3752 4.83097 17.2355 4.57996 17.04C4.5212 17.0097 4.47191 16.9638 4.4375 16.9074C4.40309 16.8509 4.38489 16.7861 4.38489 16.72C4.38489 16.6539 4.40309 16.589 4.4375 16.5326C4.47191 16.4762 4.5212 16.4303 4.57996 16.4C4.7791 16.268 4.99875 16.17 5.22996 16.11Z" fill="#0C74BB"/>
<path d="M5.42006 11.69C4.96204 11.8038 4.51392 11.9542 4.08006 12.14C3.97696 12.1873 3.87679 12.2407 3.78006 12.3C3.58006 12.45 3.59006 12.57 3.78006 12.67C4.02379 12.7601 4.28035 12.8108 4.54006 12.82C5.50897 12.885 6.48115 12.885 7.45006 12.82C8.78933 12.7726 10.1248 12.6491 11.4501 12.45H11.8801C11.906 12.4305 11.9376 12.42 11.9701 12.42C12.0025 12.42 12.0341 12.4305 12.0601 12.45C11.3274 12.891 10.4947 13.1387 9.64006 13.17C8.29773 13.3465 6.94325 13.4134 5.59006 13.37C4.65236 13.3735 3.71699 13.2763 2.80006 13.08C2.63294 13.0464 2.47354 12.982 2.33006 12.89C2.15006 12.77 2.14006 12.66 2.33006 12.52C2.49574 12.4013 2.67759 12.307 2.87006 12.24C3.58684 11.9133 4.35493 11.7137 5.14006 11.65C5.22006 11.6 5.29006 11.54 5.42006 11.69Z" fill="#0C74BB"/>
<path d="M4.75 13.92C4.51 14.35 4.61001 14.53 5.10001 14.61C5.65038 14.6869 6.20454 14.7336 6.76001 14.75C7.99854 14.7802 9.23648 14.6695 10.45 14.42C10.5281 14.398 10.6106 14.3965 10.6895 14.4158C10.7684 14.435 10.8409 14.4744 10.9 14.53C10.9835 14.6068 11.0778 14.6709 11.18 14.72L11.49 14.88C11.0753 15.0183 10.6507 15.1253 10.22 15.2C8.83459 15.4749 7.41768 15.5556 6.01001 15.44C5.42096 15.4066 4.84069 15.2818 4.29 15.07C4.08 14.98 3.83 14.89 3.82 14.62C3.81 14.35 4.05 14.25 4.24 14.14C4.39737 14.0403 4.56948 13.9661 4.75 13.92V13.92Z" fill="#0C74BB"/>
<path d="M3.29004 20.05C5.27744 20.3268 7.28815 20.3972 9.29004 20.26C10.853 20.1886 12.4029 19.9404 13.91 19.52C14.4021 19.3825 14.8659 19.1591 15.28 18.86C15.28 19.02 15.22 19.11 15.16 19.19C14.9318 19.4629 14.635 19.67 14.3 19.79C13.5384 20.0996 12.7374 20.3015 11.92 20.39C10.4887 20.5851 9.04414 20.6653 7.60004 20.63C6.3032 20.6483 5.00841 20.5209 3.74004 20.25C3.57809 20.2143 3.42502 20.1463 3.29004 20.05V20.05Z" fill="#0C74BB"/>
<path d="M12.29 15.26C12.47 15.16 12.66 15.06 12.83 14.95C13.3916 14.6509 13.8879 14.243 14.29 13.75C14.4378 13.5797 14.5423 13.3762 14.5945 13.1568C14.6467 12.9374 14.6452 12.7087 14.59 12.49C14.4874 12.2006 14.2819 11.9591 14.0126 11.8116C13.7433 11.664 13.4292 11.6208 13.13 11.69H12.69C12.9348 11.4789 13.2468 11.3619 13.57 11.36C13.8091 11.3256 14.0528 11.3416 14.2853 11.4071C14.5178 11.4725 14.734 11.5859 14.92 11.74C15.0609 11.8558 15.1771 11.9985 15.2621 12.1598C15.3471 12.321 15.399 12.4977 15.4148 12.6793C15.4306 12.8609 15.4101 13.0438 15.3543 13.2174C15.2985 13.3909 15.2087 13.5516 15.09 13.69C14.6495 14.2485 14.0602 14.6714 13.39 14.91C13.0455 15.0873 12.6737 15.2056 12.29 15.26Z" fill="#0C74BB"/>
<path d="M5.41999 11.69C5.31999 11.64 5.22 11.69 5.12 11.69C5.27465 11.6545 5.43534 11.6545 5.58999 11.69C5.53522 11.7108 5.47476 11.7108 5.41999 11.69V11.69Z" fill="#035B94"/>
<path d="M12.18 4.78997L12.12 4.73997C12.17 4.67997 12.24 4.73997 12.32 4.65997C12.3154 4.69454 12.2989 4.72642 12.2734 4.75014C12.2478 4.77387 12.2148 4.78795 12.18 4.78997V4.78997Z" fill="#DA2D2C"/>
<path d="M12.06 12.41H11.88C11.9131 12.3897 11.9512 12.3789 11.99 12.3789C12.0288 12.3789 12.0669 12.3897 12.1 12.41C12.17 12.4 12.09 12.4 12.06 12.41Z" fill="#0B5C95"/>
</svg>
