<svg width="28" height="21" viewBox="0 0 28 21" fill="none" xmlns="http://www.w3.org/2000/svg">
<path d="M5.11997 5.06998C5.19997 5.06998 5.16997 4.96998 5.11997 4.91998C5.01997 3.75998 4.91997 2.59998 4.80997 1.43998L4.71997 0.509981C4.71997 0.409981 4.71997 0.349982 4.84997 0.369982H22.1C22.36 0.369982 22.35 0.369982 22.33 0.619982C22.27 1.19998 22.23 1.78998 22.18 2.36998C22.11 3.09998 22.05 3.82998 21.98 4.55998L21.8 6.75998C21.73 7.46998 21.67 8.17998 21.6 8.89998L21.45 10.69C21.45 11.06 21.39 11.43 21.35 11.8C21.35 11.93 21.35 11.97 21.5 11.97H22.95C22.95 12.08 22.81 12.04 22.74 12.04H21.01C20.76 12.04 20.75 12.04 20.66 12.27L20.1 13.69C20.03 13.87 20.04 13.89 20.24 13.89H20.97C21.04 13.89 21.12 13.89 21.18 13.95C21.18 14.43 21.08 14.95 21.04 15.4C20.96 16.35 20.87 17.3 20.8 18.25C20.8 18.33 20.8 18.35 20.68 18.37L17.34 19.37L13.75 20.37C13.6882 20.3899 13.6217 20.3899 13.56 20.37L7.55997 18.69L6.43997 18.37C6.33997 18.37 6.29997 18.31 6.29997 18.21C6.21997 17.26 6.12997 16.31 6.04997 15.35L5.74997 12.1C5.74997 11.89 5.74997 11.67 5.74997 11.46C5.73805 11.3889 5.72135 11.3188 5.69997 11.25C5.75678 10.9878 5.83367 10.7304 5.92997 10.48L7.15997 6.68998C7.18858 6.61806 7.19626 6.53952 7.1821 6.46342C7.16794 6.38733 7.13253 6.3168 7.07997 6.25998C6.6354 5.68954 5.99972 5.2989 5.28997 5.15998C5.16997 5.12998 5.16997 5.12998 5.11997 5.06998Z" fill="#458BCA"/>
<path d="M21.18 13.93H20.09C19.98 13.93 19.95 13.93 20 13.8C20.23 13.22 20.46 12.64 20.68 12.06C20.68 11.96 20.79 11.96 20.87 11.96H22.95C22.926 11.7726 22.872 11.5902 22.79 11.42C22.58 10.79 22.34 10.17 22.12 9.54C22.1183 9.50668 22.1183 9.47331 22.12 9.43999C22.056 9.30567 22.0228 9.15877 22.0228 9.00999C22.0228 8.86122 22.056 8.71431 22.12 8.57999C22.53 7.62999 22.88 6.67 23.26 5.72C23.2617 5.69859 23.269 5.67802 23.2813 5.66043C23.2937 5.64284 23.3105 5.62888 23.33 5.62L27.08 15.69C27.08 15.69 26.99 15.69 26.95 15.69H24.42C24.395 15.6943 24.3694 15.6935 24.3447 15.6877C24.3201 15.6819 24.2968 15.6713 24.2763 15.6564C24.2558 15.6415 24.2385 15.6226 24.2254 15.6009C24.2123 15.5792 24.2036 15.5551 24.2 15.53C24.03 15.01 23.84 14.53 23.66 13.99C23.6527 13.9512 23.6313 13.9164 23.5999 13.8924C23.5685 13.8684 23.5294 13.8568 23.49 13.86L21.18 13.93Z" fill="#3D3E3E"/>
<path d="M5.69995 11.33V11.23C5.74995 11.3 5.69995 11.37 5.69995 11.44V11.33Z" fill="#64B0E2"/>
<path d="M13.63 11.36C13.5752 11.1158 13.5051 10.8753 13.42 10.64C13.3 10.24 13.17 9.83998 13.04 9.43998C13.0377 9.39048 13.0162 9.34383 12.98 9.30998L12.48 10.8C12.02 12.2 11.56 13.61 11.11 15.01C11.0979 15.0675 11.0642 15.1183 11.0159 15.1518C10.9675 15.1852 10.9081 15.1989 10.85 15.19C10.09 15.19 9.33001 15.19 8.58001 15.19C8.51329 15.1972 8.44603 15.1826 8.38832 15.1483C8.33062 15.1141 8.2856 15.062 8.26001 15C7.86001 14.3 7.45001 13.61 7.05001 12.92C7.03247 12.886 7.02332 12.8483 7.02332 12.81C7.02332 12.7717 7.03247 12.734 7.05001 12.7C7.48001 11.37 7.92001 10.04 8.35001 8.69998V8.59998L9.86001 11.6L10.26 10.37C10.8133 8.68998 11.36 7.02332 11.9 5.36998C12.01 5.03998 12.01 5.03998 12.37 5.03998H13.59C13.7367 4.99517 13.8934 4.99517 14.04 5.03998C14.14 5.03998 14.16 5.12998 14.19 5.20998C14.39 5.84998 14.58 6.47998 14.77 7.11998C15.21 8.55998 15.64 9.98998 16.07 11.43C16.0631 11.4494 16.0631 11.4706 16.07 11.49C16.14 11.36 16.19 11.22 16.25 11.08L18.74 5.23998C18.7606 5.17053 18.8049 5.11049 18.8652 5.0703C18.9255 5.03011 18.998 5.01231 19.07 5.01998C19.47 5.01998 19.87 5.01998 20.27 5.01998C20.3352 4.99993 20.4048 4.99993 20.47 5.01998H21.58L20.15 8.68998C20.1496 8.79837 20.1221 8.90493 20.07 8.99998C19.69 9.99998 19.3 10.91 18.92 11.87C18.54 12.83 18.09 13.93 17.67 14.97C17.55 15.26 17.55 15.26 17.24 15.26H15.05C14.82 15.26 14.81 15.26 14.74 15.03C14.39 13.9 14.03 12.78 13.68 11.65C13.6582 11.5543 13.6415 11.4575 13.63 11.36V11.36Z" fill="#3D3E3E"/>
<path d="M20.5201 4.97998H19.0701C19.024 4.97356 18.9772 4.98427 18.9385 5.01007C18.8998 5.03587 18.8719 5.07498 18.8601 5.11998L17.0001 9.46998C16.7301 10.12 16.4501 10.77 16.1701 11.41C16.1493 11.4611 16.1259 11.5112 16.1001 11.56C15.9801 11.18 15.8701 10.83 15.7701 10.48L14.5101 6.34998C14.3901 5.92998 14.2601 5.50998 14.1401 5.09998C14.1401 5.00998 14.0801 4.97998 13.9801 4.97998C13.8503 4.98997 13.7199 4.98997 13.5901 4.97998V2.03998C13.5901 1.87998 13.5901 1.84998 13.7801 1.84998H20.6101C20.8101 1.84998 20.8001 1.84998 20.7701 2.04998C20.7401 2.24998 20.7701 2.65998 20.6901 2.96998C20.6101 3.27998 20.6001 3.87998 20.5601 4.32998C20.5401 4.54998 20.5301 4.76998 20.5201 4.97998Z" fill="#62AEE1"/>
<path d="M13.6299 11.36L14.2699 13.36C14.4499 13.91 14.6199 14.46 14.7899 15.01C14.7899 15.15 14.8899 15.17 15.0199 15.17H17.3399C17.3951 15.1776 17.4512 15.1659 17.4986 15.1367C17.5461 15.1075 17.5819 15.0627 17.5999 15.01C18.1399 13.69 18.6899 12.29 19.2899 10.92C19.5999 10.18 19.8999 9.42999 20.1999 8.67999C20.2599 8.80999 20.1999 8.92999 20.1999 9.04999C20.1499 9.61999 20.0899 10.19 20.0399 10.75C20.0399 11.04 20.0399 11.32 19.9599 11.61C19.9599 12.08 19.8699 12.56 19.8299 13.04C19.7899 13.52 19.7599 13.9 19.7199 14.34C19.6799 14.78 19.6299 15.23 19.5899 15.68C19.5499 16.13 19.5299 16.29 19.5099 16.59C19.5 16.7598 19.5 16.9301 19.5099 17.1C19.5099 17.17 19.5099 17.22 19.3899 17.24L16.0699 18.17L13.9599 18.76C13.7199 18.83 13.7199 18.83 13.7199 18.6V11.6C13.6199 11.5 13.6299 11.43 13.6299 11.36Z" fill="#62AEE1"/>
<path d="M6.89 5.94999C6.79801 5.86138 6.7012 5.77792 6.6 5.69999C6.16813 5.36779 5.65881 5.15098 5.12 5.06999C4.85645 5.01816 4.58859 4.99138 4.32 4.98999H0.170002C0.040002 4.98999 0 4.98999 0 5.14999C0 8.43666 0 11.73 0 15.03C0 15.15 1.98185e-06 15.19 0.170002 15.19C0.910002 15.19 1.66 15.19 2.41 15.19C2.57 15.19 2.61 15.19 2.61 14.99C2.61 13.99 2.61 12.91 2.61 11.87C2.61 11.71 2.61 11.68 2.81 11.68C3.36 11.68 3.91 11.68 4.47 11.68C4.80605 11.6748 5.14086 11.638 5.47 11.57C5.53563 11.5702 5.5989 11.5456 5.64713 11.501C5.69535 11.4565 5.72495 11.3954 5.73 11.33C5.73719 11.3143 5.74091 11.2972 5.74091 11.28C5.74091 11.2627 5.73719 11.2457 5.73 11.23L7.11 6.95999C7.29 6.37999 7.29 6.37999 6.89 5.94999ZM4.98 9.13999C4.8785 9.29916 4.74 9.4314 4.57632 9.52543C4.41263 9.61946 4.22862 9.67249 4.04 9.67999C3.59384 9.70995 3.14617 9.70995 2.7 9.67999C2.58 9.67999 2.61 9.60999 2.61 9.54999C2.61 9.12999 2.61 8.71999 2.61 8.30999V7.10999C2.61 7.03999 2.61 6.96999 2.7 6.97999C3.17634 6.95502 3.65366 6.95502 4.13 6.97999C4.39995 7.0194 4.64764 7.15191 4.83024 7.3546C5.01284 7.55728 5.11887 7.81741 5.13 8.08999C5.19924 8.44691 5.14641 8.81674 4.98 9.13999Z" fill="#3D3E3E"/>
</svg>
