<svg width="16" height="21" viewBox="0 0 16 21" fill="none" xmlns="http://www.w3.org/2000/svg">
<path d="M15.84 10.88C15.84 13.11 15.84 15.35 15.84 17.58C15.8513 17.8895 15.7838 18.1968 15.6439 18.4732C15.5039 18.7495 15.2962 18.9858 15.04 19.16C14.3983 19.6166 13.6805 19.9552 12.92 20.16C11.1689 20.675 9.34225 20.8848 7.52001 20.7799C5.93587 20.7253 4.37443 20.3865 2.91001 19.7799C2.33284 19.5513 1.8062 19.2116 1.36001 18.7799C1.1896 18.6225 1.05499 18.4304 0.96528 18.2164C0.875568 18.0025 0.832845 17.7718 0.840005 17.5399C0.840005 13.0399 0.840005 8.54328 0.840005 4.04995C0.833412 3.72423 0.906491 3.40182 1.05289 3.11077C1.19928 2.81972 1.41456 2.56885 1.68001 2.37995C2.2874 1.93932 2.96307 1.60149 3.68001 1.37995C4.87012 1.00717 6.10396 0.792 7.35001 0.739954C9.03107 0.629565 10.719 0.788221 12.35 1.20995C13.2043 1.41362 14.0211 1.75112 14.77 2.20995C15.0656 2.4006 15.3261 2.64079 15.54 2.91995C15.7302 3.1661 15.8323 3.46891 15.83 3.77995C15.83 6.23995 15.84 8.55995 15.84 10.88ZM8.35001 1.87995C7.93001 1.87995 7.51001 1.87995 7.10001 1.87995C6.23349 1.93548 5.37533 2.08297 4.54001 2.31995C4.08947 2.43679 3.66752 2.64436 3.3 2.92995C3.22327 2.98877 3.1611 3.06447 3.11832 3.15117C3.07554 3.23788 3.05328 3.33326 3.05328 3.42995C3.05328 3.52664 3.07554 3.62203 3.11832 3.70873C3.1611 3.79544 3.22327 3.87113 3.3 3.92995C3.44445 4.05354 3.60207 4.16085 3.77001 4.24995C4.72173 4.6574 5.73661 4.89759 6.77001 4.95995C7.61522 5.03003 8.46479 5.03003 9.31001 4.95995C10.2602 4.91854 11.2027 4.77096 12.12 4.51995C12.5836 4.40555 13.0191 4.198 13.4 3.90995C13.4805 3.85588 13.5474 3.78397 13.5955 3.69982C13.6436 3.61568 13.6717 3.52156 13.6775 3.4248C13.6833 3.32804 13.6667 3.23124 13.6289 3.14194C13.5912 3.05264 13.5334 2.97326 13.46 2.90995C13.3614 2.81259 13.2504 2.72855 13.13 2.65995C12.7786 2.47507 12.4102 2.32438 12.03 2.20995C10.8219 1.94897 9.58371 1.85476 8.35001 1.92995V1.87995ZM10.6 14.49L9.47001 13.49C9.31001 13.35 9.31001 13.36 9.47001 13.24C9.65089 13.1338 9.8103 12.9948 9.94001 12.83C10.1482 12.5459 10.2881 12.2177 10.3488 11.8709C10.4095 11.524 10.3894 11.1678 10.29 10.83C10.2209 10.535 10.0755 10.2634 9.86839 10.0423C9.66131 9.82113 9.39979 9.65826 9.11001 9.56995C8.72368 9.46497 8.31633 9.46497 7.93001 9.56995C7.64629 9.61958 7.37852 9.73621 7.14893 9.91014C6.91935 10.0841 6.73459 10.3103 6.61001 10.5699C6.46827 10.8566 6.38983 11.1703 6.38001 11.49C6.31781 11.9925 6.45774 12.4992 6.76903 12.8986C7.08031 13.298 7.53748 13.5575 8.04001 13.62C8.16389 13.6355 8.27774 13.696 8.36001 13.7899L8.97001 14.45C9.00924 14.5024 9.06076 14.5445 9.12005 14.5724C9.17933 14.6003 9.24456 14.6132 9.31001 14.6099L10.6 14.49ZM4.88001 9.39995C4.63393 9.38646 4.38732 9.41349 4.15001 9.47995C3.98731 9.51099 3.83288 9.57565 3.69661 9.6698C3.56033 9.76395 3.44522 9.88551 3.35862 10.0267C3.27202 10.1679 3.21585 10.3256 3.19371 10.4898C3.17156 10.6539 3.18392 10.8209 3.23001 10.98C3.29257 11.1726 3.39929 11.348 3.54166 11.4921C3.68403 11.6362 3.85811 11.7451 4.05 11.81C4.21 11.88 4.37001 11.94 4.52001 12.02C4.67001 12.1 4.81001 12.1899 4.77001 12.3899C4.73001 12.5899 4.55001 12.6199 4.37001 12.6399C4.33393 12.6493 4.29608 12.6493 4.26001 12.6399C3.95971 12.6094 3.66967 12.5139 3.41 12.3599C3.29 12.2899 3.25001 12.36 3.25001 12.45V13.17C3.24623 13.2196 3.26026 13.2691 3.28957 13.3094C3.31888 13.3497 3.36157 13.3782 3.41 13.3899C3.58191 13.4467 3.75973 13.4836 3.94001 13.4999C4.4875 13.5953 5.05112 13.5148 5.55 13.27C5.70541 13.177 5.83668 13.0487 5.93313 12.8955C6.02958 12.7423 6.08848 12.5684 6.10505 12.3881C6.12162 12.2078 6.09538 12.0262 6.02847 11.8579C5.96156 11.6897 5.85587 11.5396 5.72001 11.42C5.4855 11.2346 5.22194 11.0893 4.94001 10.99C4.80743 10.949 4.68483 10.8809 4.58001 10.7899C4.53657 10.764 4.50201 10.7255 4.48091 10.6796C4.45981 10.6336 4.45316 10.5823 4.46182 10.5324C4.47049 10.4826 4.49407 10.4366 4.52946 10.4004C4.56484 10.3643 4.61036 10.3397 4.66 10.33C4.79843 10.3002 4.94159 10.3002 5.08001 10.33C5.30817 10.3545 5.53097 10.4153 5.74001 10.51C5.88001 10.57 5.91001 10.5099 5.91001 10.3899C5.91001 10.2699 5.91001 9.96995 5.91001 9.75995C5.91573 9.70839 5.9012 9.65663 5.86949 9.61558C5.83777 9.57453 5.79134 9.54741 5.74001 9.53995C5.4581 9.47492 5.16927 9.4447 4.88001 9.44995V9.39995ZM11.01 11.4599V13.26C11.01 13.37 11.01 13.4699 11.17 13.4699C11.92 13.4699 12.67 13.4699 13.42 13.4699C13.54 13.4699 13.59 13.47 13.59 13.3C13.59 13.13 13.59 12.92 13.59 12.73C13.59 12.54 13.53 12.5299 13.38 12.5299C13.08 12.5299 12.78 12.5299 12.48 12.5299C12.22 12.5299 12.22 12.53 12.22 12.27C12.22 11.4 12.22 10.54 12.22 9.66995C12.22 9.48995 12.16 9.43995 11.99 9.43995C11.7436 9.45495 11.4964 9.45495 11.25 9.43995C11.05 9.43995 11.01 9.50995 11.01 9.68995C11.02 10.33 11.01 10.92 11.01 11.51V11.4599Z" fill="#2974BA"/>
<path d="M7.67006 11.4901C7.66658 11.2385 7.72862 10.9904 7.85006 10.7701C7.91242 10.668 8.00094 10.5846 8.10645 10.5283C8.21195 10.472 8.33059 10.445 8.45006 10.4501C8.56797 10.4506 8.68329 10.4848 8.78248 10.5485C8.88166 10.6123 8.96061 10.703 9.01006 10.8101C9.13096 11.0403 9.18906 11.2983 9.17853 11.5581C9.168 11.8179 9.08919 12.0704 8.95006 12.2901C8.88721 12.3605 8.81017 12.4169 8.724 12.4555C8.63784 12.4941 8.54448 12.5141 8.45006 12.5141C8.35564 12.5141 8.26228 12.4941 8.17611 12.4555C8.08995 12.4169 8.01291 12.3605 7.95006 12.2901C7.77263 12.0607 7.67438 11.78 7.67006 11.4901Z" fill="#2974BA"/>
</svg>
