<svg width="10" height="12" viewBox="0 0 19 21" fill="none" xmlns="http://www.w3.org/2000/svg">
<path d="M9.3901 0.0999756C9.3901 0.0999756 9.4701 0.0999756 9.5101 0.0999756L14.5101 1.88998L18.5801 3.33998C18.6701 3.33998 18.7001 3.39998 18.6901 3.50998C18.6301 3.95998 18.5901 4.40997 18.5301 4.85997C18.4701 5.30997 18.4301 5.76997 18.3701 6.21997C18.3101 6.66997 18.2901 6.98997 18.2401 7.37997C18.1901 7.76997 18.1501 8.16997 18.1001 8.55997C18.0501 8.94997 18.0201 9.33997 17.9701 9.71997C17.9201 10.1 17.8801 10.51 17.8301 10.9C17.7801 11.29 17.7601 11.55 17.7201 11.9C17.6801 12.25 17.6301 12.7 17.5801 13.1C17.5301 13.5 17.5101 13.75 17.4701 14.1C17.4301 14.45 17.3801 14.89 17.3301 15.28C17.3301 15.41 17.3301 15.54 17.3301 15.67C17.3301 15.8 17.3301 15.77 17.2301 15.81L15.1301 16.97L9.5201 20.07C9.5201 20.07 9.4601 20.14 9.4101 20.07C9.39475 20.0042 9.39475 19.9358 9.4101 19.87V12.69C9.4101 12.45 9.4101 12.45 9.6401 12.45H11.8801C11.9701 12.45 11.9901 12.52 12.0101 12.58C12.1401 12.9 12.2701 13.21 12.3901 13.53C12.6201 14.09 12.8501 14.65 13.0701 15.22C13.0795 15.257 13.1018 15.2894 13.1329 15.3114C13.1641 15.3334 13.2021 15.3435 13.2401 15.34C13.8401 15.34 14.4501 15.34 15.0601 15.34C15.1701 15.34 15.1801 15.34 15.1301 15.22C14.9601 14.81 14.7701 14.41 14.5901 14L13.7801 12.18C13.5801 11.72 13.3801 11.27 13.1701 10.81L12.2901 8.94997L11.5901 7.35997C11.3201 6.76997 11.0601 6.16998 10.8001 5.57998C10.5401 4.98998 10.3901 4.65998 10.1801 4.18998C9.9701 3.71998 9.6601 3.02997 9.4101 2.44997C9.38557 2.39845 9.3655 2.34492 9.3501 2.28997C9.3501 1.86997 9.3501 1.44998 9.3501 1.02998V0.279976C9.35321 0.218152 9.36673 0.157297 9.3901 0.0999756Z" fill="#C31732"/>
<path d="M11.8701 12.44H9.56011C9.42011 12.44 9.42011 12.44 9.42011 12.59V19.92C9.43547 19.9688 9.43547 20.0211 9.42011 20.07L7.59012 19.07L1.59012 15.77C1.55909 15.7557 1.53249 15.7332 1.51313 15.7051C1.49377 15.6769 1.48237 15.6441 1.48012 15.61C1.41012 14.92 1.32011 14.23 1.24011 13.54L1.06011 11.69C0.990112 11.11 0.920115 10.54 0.860115 9.96997C0.800115 9.39997 0.730118 8.82997 0.660118 8.25997C0.590118 7.68997 0.530114 7.10997 0.460114 6.53997C0.390114 5.96997 0.350115 5.53997 0.290115 4.99997C0.230115 4.45997 0.180117 3.99997 0.120117 3.53997C0.120117 3.45997 0.120117 3.43997 0.190117 3.41997L5.39011 1.55997L9.33012 0.159973H9.39011C9.40793 0.204939 9.40793 0.255007 9.39011 0.299973V2.36997C9.39119 2.4799 9.35989 2.58771 9.30012 2.67997C9.05012 3.21997 8.81011 3.76997 8.57011 4.30997L7.76012 6.13997C7.51012 6.67997 7.27011 7.21997 7.03011 7.75997C6.79011 8.29997 6.54012 8.85997 6.30012 9.40997C6.06012 9.95997 5.87012 10.41 5.66012 10.84L4.92011 12.49L4.29012 13.91L3.72012 15.2C3.72012 15.28 3.72012 15.29 3.80012 15.3H5.29012C5.39012 15.3 5.50011 15.3 5.60011 15.3C5.63687 15.3032 5.67352 15.2927 5.70303 15.2705C5.73255 15.2484 5.75287 15.2161 5.76012 15.18C5.99012 14.62 6.21011 14.06 6.43011 13.5L6.82011 12.5C6.83414 12.4489 6.86614 12.4045 6.91023 12.3752C6.95433 12.3458 7.00755 12.3333 7.06011 12.34H11.7001C11.7801 12.38 11.8501 12.35 11.8701 12.44Z" fill="#DD0D32"/>
<path d="M11.87 12.44C11.87 12.44 11.81 12.44 11.77 12.44H7.04004C7.00986 12.4362 6.97933 12.4432 6.95375 12.4596C6.92817 12.4761 6.90917 12.501 6.90004 12.53C6.54004 13.44 6.17004 14.34 5.81004 15.25C5.81004 15.34 5.74004 15.36 5.65004 15.36H3.74004C3.60004 15.36 3.60004 15.36 3.65004 15.23C5.52337 11.0567 7.40337 6.87665 9.29004 2.68999L9.47004 2.29999L10.04 3.56999L15.21 15.21C15.27 15.34 15.27 15.34 15.13 15.34H13.21C13.1743 15.3459 13.1377 15.3377 13.1079 15.3172C13.078 15.2967 13.0573 15.2655 13.05 15.23L11.97 12.51C11.97 12.51 11.9 12.46 11.87 12.44Z" fill="white"/>
<path d="M9.41997 10.63H7.71997L7.84997 10.3C8.35997 9.09001 8.84997 7.87001 9.36997 6.65001C9.36997 6.65001 9.36997 6.58001 9.42997 6.57001C9.45494 6.80936 9.45494 7.05065 9.42997 7.29C9.42997 8.29 9.42997 9.37001 9.42997 10.4C9.45997 10.49 9.48997 10.57 9.41997 10.63Z" fill="#DD0D32"/>
<path d="M9.41992 10.63V6.69002C9.41992 6.69002 9.41992 6.61002 9.41992 6.58002L10.1999 8.43002C10.4799 9.11002 10.7599 9.79002 11.0499 10.43C11.0471 10.48 11.0471 10.5301 11.0499 10.58L9.41992 10.63Z" fill="#C41732"/>
</svg>
