<svg width="15" height="21" viewBox="0 0 15 21" fill="none" xmlns="http://www.w3.org/2000/svg">
<path d="M7.52997 0.829956H10.97C10.97 0.829956 10.97 0.829956 11.04 0.829956C11.3822 0.83051 11.7214 0.894949 12.04 1.01996C12.4069 1.16222 12.7456 1.36879 13.04 1.62996C13.4614 1.99821 13.7844 2.46561 13.98 2.98996C14.0691 3.21481 14.1296 3.44999 14.16 3.68996C14.16 3.78996 14.16 3.89995 14.16 3.99995V4.31995C14.1629 4.72351 14.0775 5.12283 13.91 5.48996C13.7947 5.75089 13.6469 5.99616 13.47 6.21996C13.1985 6.57157 12.8583 6.86419 12.47 7.07996C12.095 7.28727 11.6846 7.42292 11.26 7.47996H10.98H7.57997C7.57997 7.47996 7.51997 7.47996 7.48997 7.47996C7.48511 7.45688 7.48511 7.43304 7.48997 7.40996V0.899956C7.4975 0.873753 7.51122 0.849744 7.52997 0.829956V0.829956Z" fill="#ED7164"/>
<path d="M4.09005 0.829956H7.53005V7.48996H4.05005C3.78637 7.47941 3.52471 7.43915 3.27005 7.36996C2.80814 7.23872 2.38118 7.00645 2.02005 6.68996C1.69766 6.41036 1.43273 6.07072 1.24005 5.68996C1.07345 5.37625 0.955444 5.03908 0.890047 4.68996C0.880076 4.57016 0.880076 4.44975 0.890047 4.32996V3.99995C0.885509 3.59514 0.974488 3.19475 1.15005 2.82996C1.26864 2.54053 1.43048 2.27079 1.63004 2.02995C1.90703 1.68901 2.24641 1.40394 2.63004 1.18996C2.89837 1.05166 3.18436 0.950726 3.48005 0.889954C3.61417 0.855298 3.75162 0.835185 3.89005 0.829956H4.01005C4.01005 0.829956 4.07005 0.839956 4.09005 0.829956Z" fill="#E95026"/>
<path d="M7.52996 14.16V17.47C7.54154 18.1656 7.32753 18.8462 6.91996 19.41C6.44403 20.0889 5.73003 20.5637 4.91996 20.74C4.73582 20.7821 4.54852 20.8088 4.35997 20.82C4.35997 20.82 4.35997 20.82 4.35997 20.82H4.08997C4.07906 20.8147 4.06709 20.812 4.05497 20.812C4.04284 20.812 4.03087 20.8147 4.01997 20.82H3.82997H3.49997C3.02856 20.7158 2.58516 20.5111 2.19997 20.22C1.67305 19.8357 1.27267 19.303 1.04997 18.69C0.960413 18.459 0.903199 18.2167 0.879963 17.97C0.874973 17.8834 0.874973 17.7966 0.879963 17.71V17.37C0.874215 17.0985 0.914799 16.8279 0.999965 16.57C1.25239 15.7475 1.81075 15.0531 2.55996 14.63C2.9148 14.4336 3.3002 14.2984 3.69997 14.23H3.95996H7.52996C7.52996 14.23 7.51996 14.16 7.52996 14.16Z" fill="#4CB37D"/>
<path d="M14.2 10.74V10.92C14.1899 10.8638 14.1899 10.8062 14.2 10.75V10.74Z" fill="#1390C2"/>
<path d="M14.19 10.92V11C14.1528 11.727 13.8785 12.4218 13.4089 12.9781C12.9394 13.5343 12.3005 13.9214 11.59 14.08C11.2628 14.1583 10.9249 14.182 10.59 14.15C9.91372 14.0969 9.27069 13.8348 8.75 13.4C8.39568 13.1165 8.10488 12.7616 7.89644 12.3585C7.688 11.9554 7.56656 11.513 7.54 11.06C7.54 11.06 7.54 11.06 7.54 11C7.54506 10.9635 7.54506 10.9265 7.54 10.89V10.76C7.53517 10.7034 7.53517 10.6466 7.54 10.59C7.55807 10.2061 7.64973 9.8293 7.80999 9.48001C7.94658 9.166 8.13223 8.87571 8.36 8.62001C8.63976 8.2978 8.97937 8.03291 9.36 7.84001C9.67296 7.67588 10.0108 7.56439 10.36 7.51001H10.94C11.7881 7.54004 12.5914 7.89863 13.18 8.51001C13.6243 8.96763 13.9265 9.54423 14.05 10.17C14.0847 10.3278 14.1048 10.4885 14.11 10.65V10.92H14.19Z" fill="#46B7E9"/>
<path d="M7.52993 10.89V11.06C7.52564 11.0865 7.52564 11.1135 7.52993 11.14V14.14C7.52526 14.1203 7.52526 14.0997 7.52993 14.08V10.96C7.52993 10.96 7.49993 10.91 7.52993 10.89Z" fill="#4A4695"/>
<path d="M7.52998 10.89C7.52998 10.89 7.52998 10.89 7.52998 10.95V14.15H3.90998C3.29285 14.1003 2.7029 13.8747 2.20998 13.5C1.60546 13.0547 1.17144 12.4161 0.979984 11.69C0.92707 11.4972 0.893564 11.2996 0.879978 11.1C0.874643 11.0569 0.874643 11.0132 0.879978 10.97V10.69C0.915033 10.0142 1.15579 9.36523 1.56998 8.83004C1.96503 8.29905 2.51278 7.90132 3.13998 7.69004C3.3502 7.61537 3.5683 7.56504 3.78998 7.54004H4.04998H7.52998V10.89V10.89Z" fill="#765EA5"/>
<path d="M7.52989 10.76V7.5V10.5C7.52422 10.5264 7.52422 10.5536 7.52989 10.58V10.76Z" fill="#4A4695"/>
</svg>
